<svg xmlns="http://www.w3.org/2000/svg" width="670" height="401" viewBox="0 0 670 401" xmlns:xlink="http://www.w3.org/1999/xlink">
  <defs>
    <polygon id="a" points="669.636 61.857 669.636 122.94 .06 122.94 .06 .774 669.636 .774 669.636 61.857"/>
  </defs>
  <g fill="none" fill-rule="evenodd">
    <path fill="#1A1918" d="M161.974 200.917C161.974 216.512 156.123 230.188 144.427 241.951 132.731 253.718 119.085 259.596 103.489 259.596L.646 259.596.646 219.266 81.918 219.266C87.158 219.266 91.728 217.283 95.623 213.32 99.526 209.355 101.477 204.746 101.477 199.5L101.477 57.939 161.974 57.939 161.974 200.917M306.658 178.932L306.658 117.828C306.658 112.587 304.708 108.023 300.816 104.121 296.916 100.219 292.345 98.268 287.099 98.268L282.558 98.268C277.18 98.268 272.544 100.188 268.647 104.018 264.746 107.848 262.799 112.458 262.799 117.828L262.799 178.932 306.658 178.932zM367.155 259.596L306.658 259.596 306.658 219.266 262.799 219.266 262.799 259.596 202.302 259.596 202.302 116.822C202.302 101.091 208.179 87.348 219.945 75.584 231.709 63.822 245.524 57.939 261.388 57.939L308.275 57.939C324.001 57.939 337.751 63.822 349.517 75.584 361.273 87.348 367.155 101.091 367.155 116.822L367.155 259.596 367.155 259.596z"/>
    <polygon fill="#1A1918" points="407.489 259.596 467.986 259.596 467.986 57.939 407.489 57.939"/>
    <polygon fill="#1A1918" points=".646 38.798 669.636 38.798 669.636 .088 .646 .088"/>
    <path fill="#1A1918" d="M669.636,259.596 L566.999,259.596 C551.403,259.596 537.718,253.718 525.957,241.951 C514.191,230.188 508.313,216.512 508.313,200.917 L508.313,57.939 L568.81,57.939 L568.81,199.5 C568.81,204.746 570.792,209.355 574.761,213.32 C578.724,217.283 583.33,219.266 588.57,219.266 L669.636,219.266 L669.636,259.596"/>
    <g transform="translate(0 278)">
      <mask id="b" fill="white">
        <use xlink:href="#a"/>
      </mask>
      <path fill="#477EB3" d="M141.172,41.074 L119.328,41.074 L119.328,55.49 L141.172,55.49 C143.132,55.49 144.802,54.749 146.141,53.256 C147.487,51.773 148.159,50.037 148.159,48.067 C148.159,46.191 147.466,44.559 146.071,43.169 C144.672,41.77 143.041,41.074 141.172,41.074" mask="url(#b)"/>
      <path fill="#477EB3" d="M633.63,82.215 L619.652,72.01 L605.671,82.215 L611.056,65.767 L597.033,55.623 L614.336,55.664 L619.652,39.19 L624.959,55.664 L642.273,55.623 L628.246,65.767 L633.63,82.215 Z M567.333,41.074 L538.347,41.074 C536.426,41.074 534.768,41.761 533.38,43.128 C531.979,44.503 531.286,46.146 531.286,48.067 L531.286,55.49 L567.333,55.49 L567.333,69.909 L531.286,69.909 L531.286,77.268 C531.286,79.085 532.005,80.723 533.45,82.166 C534.898,83.604 536.524,84.325 538.347,84.325 L567.333,84.325 L567.333,98.741 L530.785,98.741 C525.162,98.741 520.227,96.641 516.003,92.434 C511.778,88.233 509.66,83.315 509.66,77.693 L509.66,47.562 C509.66,42.038 511.778,37.171 516.003,32.966 C520.227,28.761 525.111,26.658 530.634,26.658 L567.333,26.658 L567.333,41.074 Z M444.427,41.074 L401.03,41.074 C399.011,41.074 397.328,41.796 395.982,43.24 C394.636,44.677 393.97,46.412 393.97,48.431 C393.97,50.304 394.675,51.947 396.091,53.363 C397.507,54.779 399.162,55.49 401.03,55.49 L423.377,55.49 C429.092,55.49 434.04,57.595 438.195,61.805 C442.345,66.003 444.427,71.301 444.427,77.693 C444.427,83.367 442.332,88.294 438.153,92.475 C433.972,96.653 429.045,98.741 423.377,98.741 L372.342,98.741 L372.342,84.325 L415.805,84.325 C417.724,84.325 419.373,83.604 420.742,82.166 C422.115,80.723 422.801,79.044 422.801,77.117 C422.801,75.147 422.123,73.452 420.782,72.036 C419.439,70.616 417.771,69.909 415.805,69.909 L393.461,69.909 C387.84,69.909 382.908,67.79 378.686,63.567 C374.453,59.341 372.342,54.001 372.342,47.562 C372.342,41.985 374.438,37.109 378.65,32.931 C382.855,28.754 387.738,26.658 393.315,26.658 L444.427,26.658 L444.427,41.074 Z M307.104,98.741 L285.479,98.741 L285.479,84.325 L256.65,84.325 L256.65,98.741 L235.02,98.741 L235.02,47.706 C235.02,42.089 237.124,37.171 241.328,32.966 C245.535,28.761 250.469,26.658 256.137,26.658 L286.054,26.658 C291.681,26.658 296.591,28.761 300.795,32.966 C305,37.171 307.104,42.089 307.104,47.706 L307.104,98.741 Z M169.784,76.035 L169.784,77.693 C169.784,83.315 167.677,88.233 163.479,92.434 C159.274,96.641 154.362,98.741 148.735,98.741 L97.703,98.741 L97.703,26.658 L148.735,26.658 C154.406,26.658 159.33,28.754 163.515,32.931 C167.689,37.109 169.784,42.038 169.784,47.706 C169.784,53.28 167.96,58.086 164.298,62.122 C167.96,66.209 169.784,70.851 169.784,76.035 Z M61.483,82.215 L47.503,72.01 L33.523,82.215 L38.911,65.767 L24.884,55.623 L42.189,55.664 L47.503,39.19 L52.811,55.664 L70.125,55.623 L56.098,65.767 L61.483,82.215 Z M0,123 L669.636,123 L669.636,0.774 L0,0.774 L0,123 Z" mask="url(#b)"/>
    </g>
    <path fill="#477EB3" d="M278.49 319.074L263.713 319.074C261.784 319.074 260.135 319.761 258.739 321.128 257.343 322.503 256.65 324.146 256.65 326.067L256.65 347.909 285.479 347.909 285.479 326.067C285.479 324.191 284.789 322.559 283.39 321.169 281.995 319.77 280.363 319.074 278.49 319.074M141.172 347.909L119.328 347.909 119.328 362.325 141.172 362.325C143.132 362.325 144.802 361.582 146.141 360.092 147.487 358.605 148.159 356.873 148.159 354.901 148.159 353.028 147.466 351.397 146.071 349.999 144.672 348.604 143.041 347.909 141.172 347.909"/>
  </g>
</svg>
